Coordinates
version=1
nRows=6
nColumns=46
inDegrees=yes

Units are S.I. units (second, meters, Newtons, ...)
Angles are in degrees.

endheader
time	pelvis_tilt	pelvis_list	pelvis_rotation	pelvis_tx	pelvis_ty	pelvis_tz	bb_angle	bb_tx	bb_ty	bb_tz	hip_flexion_r	hip_adduction_r	hip_rotation_r	knee_angle_r	knee_angle_r_beta	ankle_angle_r	subtalar_angle_r	mtp_angle_r	crank_angle_r	hip_flexion_l	hip_adduction_l	hip_rotation_l	knee_angle_l	knee_angle_l_beta	ankle_angle_l	subtalar_angle_l	mtp_angle_l	crank_angle_l	lumbar_extension	lumbar_bending	lumbar_rotation	arm_flex_r	arm_add_r	arm_rot_r	elbow_flex_r	pro_sup_r	wrist_flex_r	wrist_dev_r	arm_flex_l	arm_add_l	arm_rot_l	elbow_flex_l	pro_sup_l	wrist_flex_l	wrist_dev_l
      5.00000000	    -23.17313066	      6.77155719	      3.04887981	      0.07776622	      1.00427715	     -0.20643689	      0.00000000	      0.50000000	      0.00000000	      0.25000000	     46.21061800	    -13.55124700	     -6.27077818	     37.55044380	      0.65537888	     -6.63566791	      0.44619821	      0.00000000	      0.00000000	    111.02032859	      0.65881287	      4.11269118	    113.42702707	      1.97967508	    -26.08878287	     -9.17309825	      0.00000000	      0.00000000	    -47.55003322	     -7.40702536	     -8.26968735	     89.12012444	     -4.92522358	     33.81330381	     34.02938199	     33.82351316	      0.00000000	      0.00000000	     89.65136230	    -19.04025198	     45.00758618	     53.98735513	     38.44618727	      0.00000000	      0.00000000
      5.00500000	    -23.51644906	      6.78700415	      3.20291832	      0.07717266	      1.00491379	     -0.20662649	      0.00000000	      0.50000000	      0.00000000	      0.25000000	     47.07793709	    -13.79932886	     -6.13351981	     39.57736536	      0.69075533	     -6.69940903	     -0.36936402	      0.00000000	      0.00000000	    110.94264242	      0.66250041	      3.85366331	    112.13489917	      1.95712320	    -24.81860667	     -9.30974817	      0.00000000	      0.00000000	    -47.42838492	     -7.52940339	     -8.38594422	     89.12873740	     -5.15171255	     33.70081522	     34.13326523	     33.86429079	      0.00000000	      0.00000000	     89.65027103	    -18.84481290	     44.78911208	     54.25738268	     38.42590209	      0.00000000	      0.00000000
      5.01000000	    -23.97827863	      6.91468260	      3.19993452	      0.07630886	      1.00532266	     -0.20669447	      0.00000000	      0.50000000	      0.00000000	      0.25000000	     48.32361821	    -13.97004408	     -5.57232024	     41.79594838	      0.72947691	     -6.85687488	     -1.33995079	      0.00000000	      0.00000000	    110.71692347	      0.52337510	      3.58155220	    110.64371375	      1.93109710	    -23.24730454	     -9.25276250	      0.00000000	      0.00000000	    -47.19831051	     -7.89861675	     -8.50790254	     89.06841015	     -5.50651455	     33.54263026	     34.46058926	     33.98010756	      0.00000000	      0.00000000	     89.64511829	    -18.53717332	     44.35170248	     54.63369893	     38.34904441	      0.00000000	      0.00000000
      5.01500000	    -24.11535754	      6.62364352	      3.19073024	      0.07566352	      1.00588207	     -0.20689993	      0.00000000	      0.50000000	      0.00000000	      0.25000000	     49.22847300	    -13.86615605	     -5.44633084	     44.14092554	      0.77040449	     -7.10579496	     -2.07890193	      0.00000000	      0.00000000	    110.11981700	      0.41650951	      3.62944732	    109.19573763	      1.90582515	    -21.68857533	     -9.59024283	      0.00000000	      0.00000000	    -47.19829434	     -7.73924121	     -8.29325657	     89.12124182	     -5.66383836	     33.48303392	     34.62196678	     34.03327344	      0.00000000	      0.00000000	     89.64082870	    -18.40285070	     44.15162384	     54.79991768	     38.31783350	      0.00000000	      0.00000000
      5.02000000	    -24.53796006	      6.62792933	      3.08587443	      0.07467483	      1.00625017	     -0.20686396	      0.00000000	      0.50000000	      0.00000000	      0.25000000	     50.64920320	    -13.75682309	     -4.67830564	     46.57427797	      0.81287450	     -7.60006083	     -3.46533900	      0.00000000	      0.00000000	    109.46697028	      0.11946329	      3.50790706	    107.46075079	      1.87554392	    -19.41587874	     -8.98873237	      0.00000000	      0.00000000	    -47.02862887	     -8.04551060	     -7.98305929	     89.00622768	     -6.70136999	     33.40846670	     35.92544838	     34.60737057	      0.00000000	      0.00000000	     89.63713176	    -17.49720641	     43.07596828	     54.99379699	     37.77518333	      0.00000000	      0.00000000
      5.02500000	    -24.85555032	      6.53964757	      3.05160204	      0.07389076	      1.00650785	     -0.20692022	      0.00000000	      0.50000000	      0.00000000	      0.25000000	     52.00712414	    -13.66011575	     -4.06225698	     49.17151510	      0.85820484	     -7.92594368	     -4.51229638	      0.00000000	      0.00000000	    108.55678386	     -0.16678719	      3.23074583	    105.62549893	      1.84351273	    -17.18513394	     -9.15866662	      0.00000000	      0.00000000	    -46.84830551	     -8.13885586	     -7.90848993	     89.00249253	     -6.92390812	     33.42517592	     36.10715302	     34.72708856	      0.00000000	      0.00000000	     89.63680447	    -17.26943618	     42.93048546	     55.10298059	     37.66783900	      0.00000000	      0.00000000
